<?xml version="1.0" encoding="UTF-8" standalone="no"?>
<svg
   xmlns:dc="http://purl.org/dc/elements/1.1/"
   xmlns:cc="http://creativecommons.org/ns#"
   xmlns:rdf="http://www.w3.org/1999/02/22-rdf-syntax-ns#"
   xmlns:svg="http://www.w3.org/2000/svg"
   xmlns="http://www.w3.org/2000/svg"
   height="1100"
   width="1100"
   id="svg14"
   xml:space="preserve"
   enable-background="new 0 0 1000 1000"
   viewBox="0 0 1100 1100"
   y="0px"
   x="0px"
   version="1.1"><defs
   id="defs18" />
<metadata
   id="metadata2"> Svg Vector Icons : http://www.onlinewebfonts.com/icon <rdf:RDF><cc:Work
     rdf:about=""><dc:format>image/svg+xml</dc:format><dc:type
       rdf:resource="http://purl.org/dc/dcmitype/StillImage" /><dc:title></dc:title></cc:Work></rdf:RDF></metadata>
<g
   transform="translate(60,-40)"
   id="g12"><path
     id="path4"
     d="M 612.2,486.3 C 757.3,291.3 687.9,102.6 514.1,52.7 432.2,29.1 313.1,99 325.5,210 c 11.4,104.1 110,133.8 100.4,243.6 41.8,-26.6 112.6,-47.2 186.3,32.7 z" /><path
     id="path6"
     d="M 344.9,538.6 C 103.5,510.5 -25.2,665.1 18.4,840.4 39,923.2 158.9,991.5 249,925.2 333.3,863.3 309.9,763.1 409.7,716.6 365.8,693.3 312.6,642.3 344.9,538.6 Z" /><path
     id="path8"
     d="M 523.8,744.1 C 620,967.3 818.3,1001.4 948.5,875.8 1009.8,816.7 1009,678.6 906.6,634 810.7,591.7 735.7,662.3 645.5,599.1 c 1.9,49.4 -15.7,121 -121.7,145 z" /><path
     id="path10"
     d="m 406.7,555.3 c -19,48.1 4.5,102.3 52.5,121.4 48,18.9 102.3,-4.6 121.2,-52.7 19.1,-48 -4.5,-102.4 -52.4,-121.3 -48.1,-19 -102.3,4.5 -121.3,52.6 z" /></g>
</svg>